<svg width="167" height="22" fill="none" xmlns="http://www.w3.org/2000/svg"><g fill="#201D1F"><path d="M94.206 15.892H99.8v5.835h-5.595v-5.835ZM96.16 5.559h-6.074v16.076H84.28V5.56h-6.103V.498H96.16v5.06ZM56.477 10.56c0-1.29.238-2.55.715-3.78a10.918 10.918 0 0 1 2.143-3.394c.933-1.013 2.064-1.817 3.394-2.412C64.08.36 65.597.051 67.284.051c2.024 0 3.791.427 5.3 1.28 1.508.834 2.63 1.945 3.364 3.335L71.512 7.82c-.258-.694-.636-1.23-1.132-1.607a4.046 4.046 0 0 0-1.578-.774 5.943 5.943 0 0 0-1.637-.238c-.834 0-1.558.168-2.173.506a4.411 4.411 0 0 0-1.489 1.28 6.21 6.21 0 0 0-.863 1.786 7.436 7.436 0 0 0-.268 1.965c0 .734.109 1.439.327 2.114a5.88 5.88 0 0 0 .953 1.816c.417.516.923.923 1.518 1.22.616.298 1.3.447 2.055.447.535 0 1.081-.08 1.637-.238a4.553 4.553 0 0 0 1.518-.834c.457-.377.804-.883 1.042-1.518l4.734 2.828c-.417 1.032-1.112 1.916-2.084 2.65-.973.734-2.074 1.3-3.305 1.697-1.23.377-2.45.566-3.662.566-1.568 0-3.007-.308-4.316-.923a11.362 11.362 0 0 1-3.365-2.501 11.942 11.942 0 0 1-2.173-3.513 10.802 10.802 0 0 1-.774-3.99ZM41.326 15.592c.119.08.496.248 1.13.506.636.258 1.38.387 2.234.387.615 0 1.111-.1 1.488-.298.378-.218.655-.546.834-.982.199-.437.328-1.003.387-1.697.08-.715.12-1.578.12-2.59V.17h5.805v10.748c0 1.607-.1 3.066-.298 4.376-.179 1.31-.556 2.441-1.132 3.394-.575.953-1.438 1.687-2.59 2.203-1.15.496-2.689.744-4.614.744-.913 0-1.747-.109-2.501-.327a7.176 7.176 0 0 1-2.084-.983l1.22-4.733ZM19.966 21.308V.17h9.705c1.032 0 1.985.209 2.858.625a7.067 7.067 0 0 1 2.263 1.697 7.417 7.417 0 0 1 1.459 2.352c.357.874.536 1.757.536 2.65 0 .814-.12 1.598-.358 2.352a7.326 7.326 0 0 1-1.041 2.084 7.41 7.41 0 0 1-1.638 1.607l4.466 7.77h-6.371l-3.722-6.49h-2.352v6.49h-5.805ZM25.77 9.757h3.662c.238 0 .467-.09.685-.268.218-.179.397-.437.536-.774.159-.338.238-.745.238-1.221 0-.496-.09-.903-.268-1.22-.159-.338-.367-.596-.625-.775-.238-.178-.476-.268-.715-.268h-3.513v4.526ZM.908 21.308V.17h9.11a6.55 6.55 0 0 1 2.858.625 7.068 7.068 0 0 1 2.263 1.697 7.422 7.422 0 0 1 1.459 2.352c.357.874.536 1.757.536 2.65 0 1.25-.298 2.431-.893 3.543a7.357 7.357 0 0 1-2.442 2.739c-1.032.694-2.243 1.042-3.632 1.042H6.714v6.49H.908ZM6.714 9.757H9.78c.238 0 .466-.07.685-.209.218-.139.397-.377.536-.714.159-.338.238-.784.238-1.34 0-.595-.09-1.052-.268-1.37-.159-.337-.367-.565-.625-.684a1.407 1.407 0 0 0-.715-.209H6.714v4.526ZM152.633.051l3.84 6.669L160.314.05h6.252l-6.639 10.718 6.401 10.42h-6.252l-3.603-6.371-3.602 6.37h-6.282l6.401-10.42L146.351.052h6.282ZM144.214 16.128v5.06h-15.065V.052h14.797v5.061h-8.991V8.09h7.681v4.704h-7.681v3.335h9.259ZM109.478 21.189V.05h5.805v16.077h9.586v5.06h-15.391Z"/></g></svg>