<svg width="1441" height="215" fill="none" xmlns="http://www.w3.org/2000/svg"><path d="M735.713 209.807V16.053h58.27v193.754h-58.27ZM680.652 52.973V4.655h168.231v48.318H680.652ZM606.349 214.462c-30.606 0-53.347-7.92-68.223-23.758-14.768-15.839-22.152-38.473-22.152-67.902V90.376c0-28.895 7.437-51.154 22.313-66.779C553.269 7.866 575.743 0 605.707 0c7.705 0 14.769.535 21.19 1.605 6.528 1.07 12.467 2.569 17.818 4.495 5.351 1.82 10.113 3.96 14.287 6.421l4.173 48.96c-6.207-2.996-12.949-5.565-20.226-7.705-7.17-2.247-15.41-3.371-24.721-3.371-14.875 0-25.737 3.745-32.586 11.237-6.849 7.49-10.274 17.925-10.274 31.302v27.45c0 13.27 3.478 23.704 10.434 31.302 6.956 7.492 18.514 11.237 34.674 11.237 8.989 0 17.069-1.124 24.239-3.371 7.17-2.354 13.859-5.137 20.066-8.347l-4.174 49.923c-4.067 2.462-8.882 4.709-14.447 6.742-5.458 2.034-11.505 3.639-18.14 4.816s-13.858 1.766-21.671 1.766ZM423.044 213.178c-6.528 0-13.11-.535-19.745-1.606-6.635-.963-12.628-2.461-17.979-4.494l-4.174-48.479a178.46 178.46 0 0 0 13.966 3.532 77.089 77.089 0 0 0 14.126 1.284c10.916 0 18.193-2.301 21.832-6.903 3.638-4.602 5.458-11.665 5.458-21.189V4.655h58.27v134.199c0 24.507-5.511 43.021-16.534 55.542-10.916 12.521-29.322 18.782-55.22 18.782ZM308.24 209.807l-3.211-37.403c-.535-6.528-1.766-11.718-3.692-15.571-1.926-3.852-4.762-6.635-8.508-8.347-3.746-1.712-8.668-2.568-14.768-2.568l-43.342-.161v-43.984l44.626-.16c9.31 0 16.052-1.927 20.226-5.78 4.174-3.959 6.261-10.059 6.261-18.3v-2.728c0-8.24-2.034-14.287-6.1-18.14-4.067-3.96-10.863-5.939-20.387-5.939h-44.787V4.656h53.295c26.219 0 45.375 4.869 57.468 14.607 12.093 9.739 18.139 23.972 18.139 42.7v3.692c0 14.233-3.799 25.095-11.397 32.587-7.491 7.384-18.567 11.343-33.229 11.878v8.348l-8.989-7.706c12.735.857 22.58 3.425 29.536 7.706 7.064 4.173 12.254 10.166 15.571 17.979 3.425 7.705 5.833 17.39 7.224 29.055l5.458 44.305H308.24Zm-113.973 0V4.655h56.344v113.01l.321 21.51v70.632h-56.665ZM39.168 154.746v-46.712h45.268c9.525 0 16.32-1.927 20.387-5.779 4.174-3.853 6.261-10.006 6.261-18.46v-8.188c0-8.454-2.087-14.607-6.261-18.46-4.067-3.96-10.862-5.94-20.387-5.94H39.168V4.656h50.405c27.182 0 47.141 5.94 59.876 17.819 12.735 11.771 19.103 28.894 19.103 51.368V85.72c0 22.58-6.368 39.756-19.103 51.528-12.735 11.665-32.587 17.497-59.555 17.497H39.168ZM0 209.807V4.655h56.826v116.381l.321 26.487v62.284H0ZM1248.53 209.874l53.94-112.85v12.04L1250.78 4.723h61.32l31.14 68.865h2.89l31.3-68.865h61.32l-51.85 104.341v-12.04l54.1 112.85h-62.6l-32.27-73.842h-2.89l-32.1 73.842h-62.61Z" fill="#000"/><path d="M1159.74 214.529c-8.56 0-16.64-.535-24.24-1.605-7.6-.963-14.5-2.194-20.71-3.692-6.2-1.605-11.55-3.211-16.05-4.816l-4.82-49.442c7.92 2.997 16.7 5.565 26.33 7.705 9.63 2.141 19.91 3.211 30.82 3.211 9.1 0 16.05-.642 20.87-1.926 4.92-1.392 8.29-3.425 10.11-6.1 1.93-2.676 2.89-5.94 2.89-9.792v-1.285c0-3.852-.91-7.009-2.73-9.471-1.71-2.461-4.6-4.28-8.66-5.457-3.96-1.285-9.37-1.98-16.22-2.087l-38.68-.963V83.862l38.52-1.124c6.74-.214 12.09-.91 16.05-2.087 4.07-1.284 6.96-3.103 8.67-5.458 1.82-2.461 2.73-5.565 2.73-9.31v-.963c0-5.672-2.19-9.846-6.58-12.521-4.39-2.783-12.63-4.174-24.72-4.174-11.13 0-21.73 1.124-31.78 3.371-10.06 2.247-18.73 4.602-26.01 7.063l4.82-46.713c7.81-3.21 16.96-5.94 27.45-8.187 10.59-2.354 22.84-3.531 36.76-3.531 26.43 0 46.17 4.709 59.23 14.126 13.06 9.418 19.58 22.902 19.58 40.453v3.21c0 8.882-1.49 16.374-4.49 22.473-2.89 6.1-7.39 10.916-13.49 14.448-6.09 3.531-14.01 5.939-23.75 7.223v7.706l-3.53-6.421c17.23 2.14 29.26 7.116 36.11 14.928 6.96 7.813 10.44 18.675 10.44 32.587v3.692c0 18.407-6.96 33.015-20.87 43.824-13.91 10.701-35.26 16.052-64.05 16.052Z" fill="#FF56B1"/><path d="M995.33 209.874h-58.271V4.723h58.271v205.151Zm-24.882-48.8h107.072v48.8H970.448v-48.8Z" fill="#000"/></svg>